<svg width="100" height="100" viewBox="0 0 100 100" fill="none" xmlns="http://www.w3.org/2000/svg">
<path d="M87.5 8.33333H75V0H66.6667V8.33333H33.3333V0H25V8.33333H12.5C9.18479 8.33333 6.00537 9.65029 3.66116 11.9945C1.31696 14.3387 0 17.5181 0 20.8333L0 100H100V20.8333C100 17.5181 98.683 14.3387 96.3388 11.9945C93.9946 9.65029 90.8152 8.33333 87.5 8.33333ZM8.33333 20.8333C8.33333 19.7283 8.77232 18.6685 9.55372 17.8871C10.3351 17.1057 11.3949 16.6667 12.5 16.6667H87.5C88.6051 16.6667 89.6649 17.1057 90.4463 17.8871C91.2277 18.6685 91.6667 19.7283 91.6667 20.8333V33.3333H8.33333V20.8333ZM8.33333 91.6667V41.6667H91.6667V91.6667H8.33333Z" fill="#373E46"/>
<path d="M70.8333 54.1666H62.5V62.5H70.8333V54.1666Z" fill="#373E46"/>
<path d="M54.1666 54.1666H45.8333V62.5H54.1666V54.1666Z" fill="#373E46"/>
<path d="M37.5 54.1666H29.1667V62.5H37.5V54.1666Z" fill="#373E46"/>
<path d="M70.8333 70.8334H62.5V79.1667H70.8333V70.8334Z" fill="#373E46"/>
<path d="M54.1666 70.8334H45.8333V79.1667H54.1666V70.8334Z" fill="#373E46"/>
<path d="M37.5 70.8334H29.1667V79.1667H37.5V70.8334Z" fill="#373E46"/>
</svg>
