<svg width="20" height="20" viewBox="0 0 20 20" fill="none" xmlns="http://www.w3.org/2000/svg">
<path d="M10.8334 0.833333C10.8334 0.612319 10.9212 0.400358 11.0774 0.244077C11.2337 0.0877969 11.4457 -5.22821e-07 11.6667 -5.22821e-07C13.8761 0.00242581 15.9943 0.881179 17.5566 2.44346C19.1188 4.00573 19.9976 6.12394 20 8.33333C20 8.55435 19.9122 8.76631 19.756 8.92259C19.5997 9.07887 19.3877 9.16667 19.1667 9.16667C18.9457 9.16667 18.7337 9.07887 18.5774 8.92259C18.4212 8.76631 18.3334 8.55435 18.3334 8.33333C18.3314 6.56583 17.6284 4.87129 16.3785 3.62148C15.1287 2.37167 13.4342 1.66865 11.6667 1.66667C11.4457 1.66667 11.2337 1.57887 11.0774 1.42259C10.9212 1.26631 10.8334 1.05435 10.8334 0.833333ZM11.6667 5C12.5508 5 13.3986 5.35119 14.0237 5.97631C14.6488 6.60143 15 7.44928 15 8.33333C15 8.55435 15.0878 8.76631 15.2441 8.92259C15.4004 9.07887 15.6123 9.16667 15.8334 9.16667C16.0544 9.16667 16.2663 9.07887 16.4226 8.92259C16.5789 8.76631 16.6667 8.55435 16.6667 8.33333C16.6654 7.00766 16.1382 5.73666 15.2008 4.79926C14.2634 3.86187 12.9924 3.33466 11.6667 3.33333C11.4457 3.33333 11.2337 3.42113 11.0774 3.57741C10.9212 3.73369 10.8334 3.94565 10.8334 4.16667C10.8334 4.38768 10.9212 4.59964 11.0774 4.75592C11.2337 4.9122 11.4457 5 11.6667 5ZM19.2442 13.9492C19.7271 14.4334 19.9983 15.0894 19.9983 15.7733C19.9983 16.4572 19.7271 17.1132 19.2442 17.5975L18.4859 18.4717C11.6609 25.0058 -4.94747 8.40167 1.48586 1.555L2.4442 0.721666C2.929 0.252231 3.57914 -0.00745962 4.25395 -0.00122149C4.92876 0.00501665 5.57398 0.276682 6.05003 0.755C6.07586 0.780833 7.62003 2.78667 7.62003 2.78667C8.07822 3.26802 8.33328 3.90744 8.3322 4.572C8.33111 5.23656 8.07396 5.87514 7.6142 6.355L6.6492 7.56833C7.18324 8.86593 7.96842 10.0452 8.95962 11.0384C9.95082 12.0316 11.1285 12.8192 12.425 13.3558L13.6459 12.385C14.1258 11.9256 14.7642 11.6687 15.4286 11.6678C16.093 11.6669 16.7322 11.9219 17.2134 12.38C17.2134 12.38 19.2184 13.9233 19.2442 13.9492ZM18.0975 15.1608C18.0975 15.1608 16.1034 13.6267 16.0775 13.6008C15.9058 13.4306 15.6739 13.3351 15.4321 13.3351C15.1903 13.3351 14.9584 13.4306 14.7867 13.6008C14.7642 13.6242 13.0834 14.9633 13.0834 14.9633C12.9701 15.0535 12.8353 15.1126 12.6922 15.1348C12.5492 15.157 12.4028 15.1416 12.2675 15.09C10.5879 14.4646 9.06231 13.4856 7.79406 12.2192C6.52581 10.9529 5.54453 9.42869 4.9167 7.75C4.86103 7.61288 4.84288 7.46341 4.86412 7.31695C4.88535 7.17049 4.94521 7.03233 5.03753 6.91667C5.03753 6.91667 6.3767 5.235 6.3992 5.21333C6.56942 5.04165 6.66493 4.80968 6.66493 4.56792C6.66493 4.32615 6.56942 4.09418 6.3992 3.9225C6.37336 3.8975 4.8392 1.90167 4.8392 1.90167C4.66495 1.74542 4.43753 1.66175 4.20357 1.66779C3.96961 1.67383 3.74681 1.76914 3.58086 1.93417L2.62253 2.7675C-2.07914 8.42083 12.3134 22.015 17.2675 17.3333L18.0267 16.4583C18.2046 16.2936 18.3114 16.066 18.3247 15.8239C18.3379 15.5818 18.2564 15.344 18.0975 15.1608Z" fill="white"/>
</svg>
