<svg width="50" height="50" viewBox="0 0 50 50" fill="none" xmlns="http://www.w3.org/2000/svg">
<path d="M25 0C20.0555 0 15.222 1.46622 11.1108 4.21326C6.99953 6.9603 3.79521 10.8648 1.90302 15.4329C0.0108322 20.0011 -0.484251 25.0277 0.480379 29.8773C1.44501 34.7268 3.82603 39.1814 7.32234 42.6777C10.8187 46.174 15.2732 48.555 20.1228 49.5196C24.9723 50.4843 29.9989 49.9892 34.5671 48.097C39.1353 46.2048 43.0397 43.0005 45.7867 38.8893C48.5338 34.778 50 29.9445 50 25C49.9928 18.3718 47.3566 12.0171 42.6698 7.33025C37.9829 2.64339 31.6282 0.00716892 25 0V0ZM25 45.8333C20.8796 45.8333 16.8517 44.6115 13.4256 42.3223C9.99961 40.0331 7.32935 36.7794 5.75252 32.9726C4.1757 29.1658 3.76313 24.9769 4.56698 20.9356C5.37084 16.8944 7.35503 13.1822 10.2686 10.2686C13.1822 7.35502 16.8944 5.37083 20.9356 4.56697C24.9769 3.76311 29.1658 4.17568 32.9726 5.75251C36.7794 7.32934 40.0331 9.9996 42.3223 13.4256C44.6115 16.8516 45.8333 20.8796 45.8333 25C45.8273 30.5235 43.6304 35.819 39.7247 39.7247C35.819 43.6304 30.5235 45.8273 25 45.8333ZM36.8896 27.3354C36.4989 26.9449 35.9691 26.7254 35.4167 26.7254C34.8643 26.7254 34.3344 26.9449 33.9438 27.3354L27.0833 34.1938L27.0688 12.5C27.0688 11.9475 26.8493 11.4176 26.4586 11.0269C26.0679 10.6362 25.538 10.4167 24.9854 10.4167C24.4329 10.4167 23.903 10.6362 23.5123 11.0269C23.1216 11.4176 22.9021 11.9475 22.9021 12.5L22.9167 34.1958L16.0563 27.3354C15.8683 27.1302 15.6412 26.9647 15.3883 26.8487C15.1354 26.7327 14.8618 26.6686 14.5836 26.66C14.3055 26.6515 14.0285 26.6988 13.7689 26.7991C13.5094 26.8994 13.2726 27.0506 13.0724 27.244C12.8723 27.4373 12.7129 27.6687 12.6037 27.9246C12.4945 28.1806 12.4376 28.4558 12.4365 28.734C12.4354 29.0123 12.49 29.2879 12.5972 29.5447C12.7043 29.8015 12.8619 30.0343 13.0604 30.2292L13.1104 30.2813L20.5792 37.7521C21.1596 38.3326 21.8486 38.793 22.607 39.1072C23.3653 39.4213 24.1781 39.583 24.999 39.583C25.8198 39.583 26.6326 39.4213 27.391 39.1072C28.1493 38.793 28.8384 38.3326 29.4188 37.7521L36.8896 30.2813C37.2802 29.8906 37.4996 29.3608 37.4996 28.8083C37.4996 28.2559 37.2802 27.7261 36.8896 27.3354Z" fill="#BCBCBC"/>
</svg>
