<svg width="101" height="87" viewBox="0 0 101 87" fill="none" xmlns="http://www.w3.org/2000/svg">
<path d="M95.3875 31.1709C93.4337 28.9192 91.0189 27.1137 88.3066 25.8765C85.5943 24.6393 82.6478 23.9994 79.6667 24H63.0458L64.4458 15.4959C64.9412 12.5011 64.3436 9.42809 62.7619 6.83727C61.1803 4.24646 58.7201 2.3105 55.83 1.38249C52.9399 0.454488 49.8125 0.59628 47.0182 1.78201C44.224 2.96773 41.949 5.11838 40.6083 7.84169L32.6333 24H21.3333C15.81 24.0066 10.5148 26.2037 6.60925 30.1093C2.70368 34.0149 0.506616 39.3101 0.5 44.8334L0.5 65.6667C0.506616 71.19 2.70368 76.4852 6.60925 80.3908C10.5148 84.2964 15.81 86.4934 21.3333 86.5H76.75C81.7644 86.4795 86.6049 84.6597 90.3908 81.3715C94.1768 78.0834 96.6566 73.5455 97.3792 68.5834L100.317 47.75C100.73 44.7948 100.504 41.7851 99.6539 38.9247C98.8035 36.0644 97.3486 33.4201 95.3875 31.1709ZM8.83333 65.6667V44.8334C8.83333 41.5182 10.1503 38.3387 12.4945 35.9945C14.8387 33.6503 18.0181 32.3334 21.3333 32.3334H29.6667V78.1667H21.3333C18.0181 78.1667 14.8387 76.8497 12.4945 74.5055C10.1503 72.1613 8.83333 68.9819 8.83333 65.6667ZM92.0458 46.5792L89.1042 67.4125C88.6741 70.3875 87.1905 73.1093 84.9233 75.0828C82.6561 77.0564 79.7558 78.1507 76.75 78.1667H38V31.225C38.3927 30.8829 38.7177 30.4702 38.9583 30.0084L48.0792 11.5292C48.4212 10.9122 48.9048 10.3852 49.4901 9.99153C50.0755 9.59782 50.7459 9.34863 51.4463 9.26444C52.1467 9.18024 52.857 9.26345 53.519 9.50722C54.181 9.75099 54.7757 10.1484 55.2542 10.6667C55.6635 11.1427 55.9628 11.7032 56.1306 12.3082C56.2984 12.9132 56.3307 13.5478 56.225 14.1667L54.025 27.5C53.9284 28.0958 53.9625 28.7054 54.1247 29.2867C54.2869 29.868 54.5735 30.4072 54.9646 30.8668C55.3557 31.3265 55.842 31.6957 56.3898 31.9489C56.9377 32.2021 57.534 32.3333 58.1375 32.3334H79.6667C81.4558 32.3331 83.2242 32.717 84.8523 33.459C86.4804 34.201 87.9302 35.2838 89.1037 36.6343C90.2773 37.9849 91.1472 39.5716 91.6548 41.2873C92.1624 43.0029 92.2957 44.8076 92.0458 46.5792Z" fill="#373E46"/>
</svg>
