<svg width="15" height="16" viewBox="0 0 15 16" fill="none" xmlns="http://www.w3.org/2000/svg">
<path d="M7.5 8.00016C7.99445 8.00016 8.4778 7.85353 8.88893 7.57883C9.30005 7.30413 9.62048 6.91368 9.8097 6.45687C9.99892 6.00005 10.0484 5.49738 9.95197 5.01243C9.8555 4.52748 9.6174 4.08202 9.26777 3.73239C8.91814 3.38276 8.47268 3.14466 7.98773 3.04819C7.50277 2.95173 7.00011 3.00124 6.54329 3.19046C6.08648 3.37968 5.69603 3.70011 5.42133 4.11123C5.14662 4.52235 5 5.0057 5 5.50016C5 6.1632 5.26339 6.79908 5.73223 7.26792C6.20108 7.73677 6.83696 8.00016 7.5 8.00016ZM7.5 4.25016C7.74723 4.25016 7.9889 4.32347 8.19446 4.46082C8.40003 4.59817 8.56024 4.79339 8.65485 5.0218C8.74946 5.25021 8.77421 5.50154 8.72598 5.74402C8.67775 5.9865 8.5587 6.20922 8.38388 6.38404C8.20907 6.55886 7.98634 6.67791 7.74386 6.72614C7.50139 6.77437 7.25005 6.74962 7.02165 6.65501C6.79324 6.5604 6.59802 6.40018 6.46066 6.19462C6.32331 5.98906 6.25 5.74738 6.25 5.50016C6.25 5.16864 6.3817 4.85069 6.61612 4.61627C6.85054 4.38185 7.16848 4.25016 7.5 4.25016ZM10 14.2689L15 15.4864V8.92703C14.9999 8.52445 14.8702 8.13261 14.6301 7.80945C14.39 7.4863 14.0523 7.249 13.6669 7.13266L12.3544 6.69516C12.4504 6.30532 12.4992 5.90538 12.5 5.50391C12.5 4.17782 11.9732 2.90605 11.0355 1.96837C10.0979 1.03069 8.82608 0.503906 7.5 0.503906C6.17392 0.503906 4.90215 1.03069 3.96447 1.96837C3.02679 2.90605 2.5 4.17782 2.5 5.50391C2.50185 5.75761 2.52274 6.01083 2.5625 6.26141C2.27867 6.14825 1.97143 6.10637 1.66767 6.13944C1.36391 6.1725 1.07287 6.27949 0.820029 6.45105C0.567185 6.62262 0.360233 6.85353 0.217279 7.12358C0.0743244 7.39363 -0.000277007 7.6946 7.72901e-07 8.00016V14.0952L4.98938 15.5208L10 14.2689ZM4.84813 2.85266C5.55265 2.15813 6.50309 1.77014 7.49239 1.77321C8.48169 1.77627 9.42971 2.17015 10.1299 2.86904C10.8301 3.56792 11.2258 4.51519 11.2307 5.50449C11.2356 6.49378 10.8495 7.44495 10.1563 8.15078L7.5 10.7502L4.84813 8.15578C4.14492 7.45253 3.74986 6.49874 3.74986 5.50422C3.74986 4.5097 4.14492 3.55591 4.84813 2.85266ZM1.25 8.00016C1.24921 7.89707 1.27432 7.79544 1.32302 7.70459C1.37173 7.61373 1.44247 7.53656 1.52875 7.48016C1.61901 7.42092 1.72299 7.3859 1.83069 7.37845C1.93839 7.37101 2.0462 7.3914 2.14375 7.43766L3.04 7.76141C3.27979 8.23626 3.59349 8.66999 3.96938 9.04641L7.5 12.5002L11.0356 9.04203C11.3833 8.69488 11.6781 8.29857 11.9106 7.86578L13.2963 8.32891C13.4268 8.36624 13.5416 8.44504 13.6233 8.5534C13.7051 8.66176 13.7493 8.79379 13.7494 8.92953V13.8977L10 12.9814L5.0125 14.2314L1.25 13.1539V8.00016Z" fill="white"/>
</svg>
