<svg width="31" height="31" viewBox="0 0 31 31" fill="none" xmlns="http://www.w3.org/2000/svg">
<path d="M4.60661 4.60677C2.50882 6.70456 1.08021 9.3773 0.501429 12.287C-0.0773493 15.1967 0.219701 18.2127 1.35502 20.9536C2.49033 23.6945 4.41292 26.0372 6.87965 27.6854C9.34639 29.3336 12.2465 30.2134 15.2132 30.2134C18.1799 30.2134 21.08 29.3336 23.5468 27.6854C26.0135 26.0372 27.9361 23.6945 29.0714 20.9536C30.2067 18.2127 30.5038 15.1967 29.925 12.287C29.3462 9.37731 27.9176 6.70456 25.8198 4.60677C23.0047 1.7977 19.1901 0.220094 15.2132 0.220093C11.2363 0.220092 7.42176 1.7977 4.60661 4.60677ZM24.052 24.0522C22.3039 25.8004 20.0766 26.9909 17.6518 27.4732C15.2271 27.9555 12.7137 27.708 10.4297 26.7619C8.14559 25.8158 6.19336 24.2136 4.81984 22.158C3.44632 20.1024 2.71321 17.6856 2.71321 15.2134C2.71321 12.7411 3.44632 10.3244 4.81984 8.26875C6.19336 6.21313 8.14559 4.61098 10.4297 3.66488C12.7137 2.71878 15.2271 2.47125 17.6518 2.95356C20.0766 3.43588 22.3039 4.62638 24.052 6.37454C26.3929 8.72053 27.7075 11.8993 27.7075 15.2134C27.7075 18.5275 26.3929 21.7062 24.052 24.0522ZM19.6326 10.794C19.867 11.0284 19.9987 11.3463 19.9987 11.6778C19.9987 12.0094 19.867 12.3273 19.6326 12.5617L16.981 15.2134L19.6326 17.865C19.867 18.0994 19.9987 18.4174 19.9987 18.7489C19.9987 19.0804 19.867 19.3984 19.6326 19.6328C19.3982 19.8672 19.0803 19.9989 18.7487 19.9989C18.4172 19.9989 18.0993 19.8672 17.8649 19.6328L15.2132 16.9811L12.5616 19.6328C12.3271 19.8672 12.0092 19.9989 11.6777 19.9989C11.3462 19.9989 11.0282 19.8672 10.7938 19.6328C10.5594 19.3984 10.4277 19.0804 10.4277 18.7489C10.4277 18.4174 10.5594 18.0994 10.7938 17.865L13.4454 15.2134L10.7938 12.5617C10.5594 12.3273 10.4277 12.0094 10.4277 11.6778C10.4277 11.3463 10.5594 11.0284 10.7938 10.794C11.0282 10.5595 11.3462 10.4278 11.6777 10.4278C12.0092 10.4278 12.3271 10.5595 12.5616 10.794L15.2132 13.4456L17.8649 10.794C18.0993 10.5595 18.4172 10.4278 18.7487 10.4278C19.0803 10.4278 19.3982 10.5595 19.6326 10.794Z" fill="#CB2128"/>
</svg>
