<svg width="100" height="100" viewBox="0 0 100 100" fill="none" xmlns="http://www.w3.org/2000/svg">
<g clip-path="url(#clip0_119_2)">
<path d="M77.4209 8.91669L51.3167 0.212527C50.462 -0.0721444 49.5381 -0.0721444 48.6834 0.212527L22.5792 8.91669C18.4288 10.2954 14.8184 12.9469 12.2611 16.4947C9.70368 20.0424 8.32937 24.3058 8.33338 28.6792V50C8.33338 81.5125 46.6667 98.9167 48.3084 99.6417C48.841 99.8783 49.4173 100.001 50 100.001C50.5828 100.001 51.1591 99.8783 51.6917 99.6417C53.3334 98.9167 91.6667 81.5125 91.6667 50V28.6792C91.6707 24.3058 90.2964 20.0424 87.739 16.4947C85.1816 12.9469 81.5713 10.2954 77.4209 8.91669ZM83.3334 50C83.3334 72.7292 57.0042 87.6375 50 91.2042C42.9875 87.65 16.6667 72.7875 16.6667 50V28.6792C16.667 26.0553 17.4929 23.4981 19.0274 21.3698C20.5619 19.2415 22.7273 17.65 25.2167 16.8209L50 8.55836L74.7834 16.8209C77.2728 17.65 79.4381 19.2415 80.9727 21.3698C82.5072 23.4981 83.3331 26.0553 83.3334 28.6792V50Z" fill="#373E46"/>
<path d="M63.75 34.5833L46.3 52.0833L36.95 42.3333C36.5748 41.923 36.1213 41.592 35.6161 41.3597C35.111 41.1275 34.5645 40.9986 34.0088 40.9808C33.4531 40.963 32.8994 41.0566 32.3805 41.2561C31.8615 41.4556 31.3877 41.7569 30.987 42.1423C30.5863 42.5277 30.2668 42.9895 30.0472 43.5003C29.8277 44.0111 29.7127 44.5607 29.7088 45.1166C29.705 45.6726 29.8125 46.2237 30.0249 46.7375C30.2374 47.2513 30.5505 47.7174 30.9459 48.1083L40.5542 58.1083C41.2708 58.8822 42.1369 59.5028 43.1001 59.9325C44.0634 60.3623 45.1037 60.5921 46.1584 60.6083H46.2959C47.3294 60.6117 48.3534 60.4098 49.3083 60.0142C50.2632 59.6187 51.13 59.0374 51.8584 58.3041L69.6584 40.5041C70.0471 40.1162 70.3557 39.6554 70.5664 39.1483C70.7771 38.6411 70.8859 38.0973 70.8864 37.5481C70.887 36.9989 70.7794 36.4549 70.5698 35.9473C70.3601 35.4397 70.0526 34.9783 69.6646 34.5895C69.2767 34.2008 68.816 33.8922 68.3088 33.6815C67.8016 33.4708 67.2578 33.362 66.7086 33.3615C66.1594 33.3609 65.6154 33.4685 65.1078 33.6781C64.6002 33.8878 64.1388 34.1953 63.75 34.5833Z" fill="#373E46"/>
</g>
<defs>
<clipPath id="clip0_119_2">
<rect width="100" height="100" fill="white"/>
</clipPath>
</defs>
</svg>
