<svg width="100" height="100" viewBox="0 0 100 100" fill="none" xmlns="http://www.w3.org/2000/svg">
<g clip-path="url(#clip0_119_5)">
<path d="M50 0C40.111 0 30.444 2.93245 22.2215 8.42652C13.9991 13.9206 7.59043 21.7295 3.80605 30.8658C0.0216643 40.0021 -0.968503 50.0555 0.960758 59.7545C2.89002 69.4536 7.65206 78.3627 14.6447 85.3553C21.6373 92.348 30.5465 97.11 40.2455 99.0393C49.9446 100.969 59.9979 99.9784 69.1342 96.194C78.2705 92.4096 86.0794 86.001 91.5735 77.7785C97.0676 69.5561 100 59.8891 100 50C99.9857 36.7436 94.7132 24.0342 85.3395 14.6605C75.9658 5.28678 63.2564 0.0143378 50 0V0ZM50 91.6667C41.7591 91.6667 33.7033 89.223 26.8513 84.6446C19.9992 80.0662 14.6587 73.5587 11.505 65.9452C8.35139 58.3316 7.52625 49.9538 9.13397 41.8712C10.7417 33.7887 14.7101 26.3644 20.5372 20.5372C26.3644 14.71 33.7887 10.7417 41.8713 9.13395C49.9538 7.52623 58.3316 8.35137 65.9452 11.505C73.5588 14.6587 80.0662 19.9992 84.6446 26.8512C89.223 33.7033 91.6667 41.7591 91.6667 50C91.6546 61.047 87.2608 71.638 79.4494 79.4494C71.638 87.2608 61.047 91.6545 50 91.6667Z" fill="#373E46"/>
<path d="M49.9999 25C48.8949 25 47.8351 25.439 47.0537 26.2204C46.2723 27.0018 45.8333 28.0616 45.8333 29.1667V47.1875L31.7874 55.9875C30.8481 56.5743 30.1804 57.5102 29.9311 58.5893C29.6819 59.6684 29.8715 60.8024 30.4583 61.7417C31.0451 62.681 31.981 63.3487 33.0601 63.598C34.1392 63.8472 35.2731 63.6576 36.2124 63.0708L52.2124 53.0708C52.817 52.6921 53.3141 52.1644 53.6563 51.5385C53.9984 50.9125 54.1742 50.2092 54.1666 49.4958V29.1667C54.1666 28.0616 53.7276 27.0018 52.9462 26.2204C52.1648 25.439 51.105 25 49.9999 25Z" fill="#373E46"/>
</g>
<defs>
<clipPath id="clip0_119_5">
<rect width="100" height="100" fill="white"/>
</clipPath>
</defs>
</svg>
