<svg width="40" height="40" viewBox="0 0 40 40" fill="none" xmlns="http://www.w3.org/2000/svg">
<g clip-path="url(#clip0_16_294)">
<path d="M8.33333 40H31.6667C33.876 39.9974 35.9941 39.1185 37.5563 37.5563C39.1185 35.9941 39.9974 33.876 40 31.6667V8.33333C39.9974 6.12401 39.1185 4.00593 37.5563 2.4437C35.9941 0.88147 33.876 0.00264643 31.6667 0L8.33333 0C6.12401 0.00264643 4.00593 0.88147 2.4437 2.4437C0.88147 4.00593 0.00264643 6.12401 0 8.33333L0 31.6667C0.00264643 33.876 0.88147 35.9941 2.4437 37.5563C4.00593 39.1185 6.12401 39.9974 8.33333 40ZM10.4883 15.775L16.465 9.79833C16.9293 9.33395 17.4805 8.96558 18.0872 8.71425C18.6939 8.46292 19.3442 8.33357 20.0008 8.33357C20.6575 8.33357 21.3078 8.46292 21.9144 8.71425C22.5211 8.96558 23.0724 9.33395 23.5367 9.79833L29.5117 15.775L29.5517 15.8167C29.7105 15.9726 29.8365 16.1588 29.9223 16.3642C30.008 16.5696 30.0517 16.7902 30.0508 17.0128C30.0499 17.2354 30.0044 17.4555 29.9171 17.6603C29.8297 17.865 29.7022 18.0502 29.5421 18.2048C29.382 18.3595 29.1925 18.4805 28.9848 18.5607C28.7772 18.641 28.5556 18.6788 28.3331 18.672C28.1106 18.6651 27.8917 18.6138 27.6894 18.521C27.487 18.4282 27.3053 18.2958 27.155 18.1317L21.6667 12.6433L21.6783 30C21.6783 30.442 21.5027 30.866 21.1902 31.1785C20.8776 31.4911 20.4537 31.6667 20.0117 31.6667C19.5696 31.6667 19.1457 31.4911 18.8332 31.1785C18.5206 30.866 18.345 30.442 18.345 30L18.3333 12.645L12.845 18.1317C12.6913 18.2908 12.5073 18.4178 12.304 18.5052C12.1007 18.5925 11.882 18.6385 11.6607 18.6404C11.4394 18.6423 11.2199 18.6002 11.0151 18.5164C10.8102 18.4326 10.6242 18.3088 10.4677 18.1523C10.3112 17.9958 10.1874 17.8097 10.1036 17.6049C10.0198 17.4001 9.97766 17.1806 9.97958 16.9593C9.98151 16.738 10.0275 16.5193 10.1148 16.316C10.2022 16.1127 10.3292 15.9287 10.4883 15.775Z" fill="#6D7A79"/>
</g>
<defs>
<clipPath id="clip0_16_294">
<rect width="40" height="40" fill="white"/>
</clipPath>
</defs>
</svg>
