<svg width="96" height="15" viewBox="0 0 96 15" fill="none" xmlns="http://www.w3.org/2000/svg">
<path d="M8.11293 6.04825H14.6926L14.6926 13.8029H12.5388L12.1128 12.9754C10.8584 13.732 9.58033 14.1339 7.80525 14.1339C3.73441 14.1339 0.468262 11.5096 0.468262 7.27765C0.468262 3.06932 3.68707 0.421384 7.80525 0.421384C10.9057 0.421384 12.9885 1.53257 14.5269 3.8968L11.7578 5.45719C10.7401 4.10958 9.86435 3.58945 7.78159 3.58945C5.43848 3.58945 3.92375 4.9607 3.92375 7.27765C3.92375 9.64188 5.39115 10.9658 7.78159 10.9658C9.41466 10.9658 10.3377 10.7294 11.3317 10.1147V9.05082L8.11293 8.93261V6.04825Z" fill="#6D7A79"/>
<path d="M17.083 0.728734L29.1299 0.728734V3.87316L20.5622 3.87316V5.59905L28.2542 5.59905V8.74347L20.5622 8.74347V10.5876L29.4376 10.5876V13.8029L17.083 13.8029V0.728734Z" fill="#6D7A79"/>
<path d="M31.5203 0.728734H34.9758V5.33898H38.0526L41.2004 0.728734H45.2239L41.0111 6.78116L45.5079 13.8029H41.3661L38.1473 8.53069H34.9758V13.8029H31.5203V0.728734Z" fill="#6D7A79"/>
<path d="M54.5964 3.82587L52.5136 8.86168H57.1288L55.1407 3.82587H54.5964ZM52.3716 0.728734L57.4365 0.728734L62.9984 13.8029H59.3062L58.4779 11.8879L51.2355 11.8879L50.4308 13.8029H46.6913L52.3716 0.728734Z" fill="#6D7A79"/>
<path d="M64.3474 0.728734L78.0274 0.728734V3.84952H72.9388V13.8029L69.436 13.8029V3.84952H64.3474V0.728734Z" fill="#6D7A79"/>
<path d="M87.2814 3.82587L85.1987 8.86168H89.8139L87.8258 3.82587H87.2814ZM85.0567 0.728734L90.1215 0.728734L95.6835 13.8029H91.9913L91.1629 11.8879L83.9206 11.8879L83.1159 13.8029H79.3764L85.0567 0.728734Z" fill="#6D7A79"/>
</svg>
