<svg width="50" height="50" viewBox="0 0 50 50" fill="none" xmlns="http://www.w3.org/2000/svg">
<path fill-rule="evenodd" clip-rule="evenodd" d="M47.0851 26.7033L49.852 26.7018C49.444 32.7003 46.9346 38.3424 42.5991 42.6747C40.9071 44.365 38.9711 45.8146 36.8516 46.9665H36.8982C34.7079 48.1529 32.3219 49.0236 29.8004 49.5138C28.2122 49.8236 27.5243 49.8973 25.9677 49.9559V47.983C28.0557 47.9499 29.5987 47.7093 31.7649 47.1168C40.2281 44.5183 46.5086 37.2913 47.8513 28.4898H46.4107H44.0563C42.5449 36.9725 35.4711 43.8071 26.2131 44.2672C26.2131 34.9078 26.2131 31.2266 26.2131 21.8687H44.0894C44.1707 22.353 44.2309 22.8372 44.2731 23.3169C44.264 23.2131 44.255 23.1093 44.243 23.0056C44.255 23.1259 44.267 23.2462 44.2776 23.3665V23.377L44.2926 23.5409V23.5424V23.5515L44.2987 23.6296C44.3754 24.6672 44.3709 25.6943 44.2866 26.7033H47.0851ZM42.2423 28.4883H30.1722V26.7018H42.4952C42.5886 25.6973 42.5946 24.6687 42.5103 23.6281C37.6359 23.6281 32.7991 23.6597 27.9503 23.6597C27.9503 29.9108 28.006 36.162 28.006 42.3529C35.3793 41.0642 40.8784 35.4612 42.2423 28.4883ZM24.9546 5.68681C19.6015 5.68681 14.7572 7.85372 11.2497 11.3575C3.72278 18.8763 3.72278 31.2191 11.2497 38.7379C13.6281 41.1138 16.6208 42.8747 19.9703 43.7635V41.9018C17.1176 41.0612 14.566 39.5168 12.5172 37.4717C5.68579 30.6492 5.68579 19.4492 12.5172 12.6267C15.6995 9.44771 20.0967 7.48079 24.9531 7.48079C29.8094 7.48079 34.2066 9.44771 37.389 12.6267C38.64 13.8778 39.7043 15.3154 40.5352 16.8958C43.1907 16.8958 45.8748 16.8958 48.5378 16.8958C46.7058 11.6056 43.1802 7.08079 38.4307 4.03418C33.058 0.587566 26.3666 -0.812432 19.6346 0.652228C12.9056 2.11689 7.40493 6.16952 3.9531 11.5379C-2.38603 21.3981 -0.984528 34.389 7.31009 42.6747C10.7499 46.1108 15.1892 48.5484 20.1555 49.5138C21.7421 49.8236 22.4301 49.8973 23.9866 49.9559C23.9866 42.2056 23.9866 34.4537 23.9866 26.7033H12.2116C12.1183 25.6928 12.1107 24.6748 12.189 23.6627H24.0167V21.8703H12.4238H12.0144H10.6039C10.2441 24.0612 10.2591 26.3033 10.649 28.4898H12.0144V28.4958H22.1922C22.1922 34.9905 22.1922 41.4868 22.1922 47.983C18.6802 47.5619 15.3488 46.3409 12.4359 44.4732C5.8002 40.2161 1.7959 32.9018 1.7959 25.0492C1.7959 18.6612 4.38816 12.8778 8.57912 8.69132C12.7701 4.50486 18.5598 1.91538 24.9546 1.91538C31.3494 1.91538 37.1376 4.50486 41.3301 8.69132C43.1847 10.5455 44.7292 12.7139 45.8703 15.1094H41.589C40.7686 13.7409 39.7825 12.4808 38.6595 11.359C35.152 7.85523 30.3062 5.68681 24.9546 5.68681Z" fill="#CB2128"/>
</svg>
